<svg width="32" height="32" viewBox="0 0 32 32" fill="none" xmlns="http://www.w3.org/2000/svg">
<path fill-rule="evenodd" clip-rule="evenodd" d="M30.0018 16.0013C30.0018 15.736 29.8964 15.4817 29.7089 15.2942C29.5214 15.1066 29.267 15.0013 29.0018 15.0013H5.41579L11.7098 8.70926C11.8028 8.61629 11.8765 8.50591 11.9268 8.38443C11.9772 8.26295 12.0031 8.13275 12.0031 8.00126C12.0031 7.86978 11.9772 7.73958 11.9268 7.6181C11.8765 7.49662 11.8028 7.38624 11.7098 7.29326C11.6168 7.20029 11.5064 7.12653 11.385 7.07622C11.2635 7.0259 11.1333 7 11.0018 7C10.8703 7 10.7401 7.0259 10.6186 7.07622C10.4971 7.12653 10.3868 7.20029 10.2938 7.29326L2.29379 15.2933C2.20066 15.3862 2.12678 15.4965 2.07636 15.618C2.02595 15.7395 2 15.8697 2 16.0013C2 16.1328 2.02595 16.263 2.07636 16.3845C2.12678 16.506 2.20066 16.6164 2.29379 16.7093L10.2938 24.7093C10.3868 24.8022 10.4971 24.876 10.6186 24.9263C10.7401 24.9766 10.8703 25.0025 11.0018 25.0025C11.1333 25.0025 11.2635 24.9766 11.385 24.9263C11.5064 24.876 11.6168 24.8022 11.7098 24.7093C11.8028 24.6163 11.8765 24.5059 11.9268 24.3844C11.9772 24.263 12.0031 24.1327 12.0031 24.0013C12.0031 23.8698 11.9772 23.7396 11.9268 23.6181C11.8765 23.4966 11.8028 23.3862 11.7098 23.2933L5.41579 17.0013H29.0018C29.267 17.0013 29.5214 16.8959 29.7089 16.7084C29.8964 16.5208 30.0018 16.2665 30.0018 16.0013Z" fill="black"/>
</svg>
