<svg width="24" height="24" viewBox="0 0 24 24" fill="none" xmlns="http://www.w3.org/2000/svg">
<path d="M21.6295 0C22.2545 0 22.8013 0.207589 23.2701 0.622768C23.7388 1.03795 23.9732 1.55804 23.9732 2.18304C23.9732 2.74554 23.7723 3.41964 23.3705 4.20536C20.4062 9.82143 18.3304 13.1786 17.1429 14.2768C16.2768 15.0893 15.3036 15.4955 14.2232 15.4955C13.0982 15.4955 12.1317 15.0826 11.3237 14.2567C10.5156 13.4308 10.1116 12.4509 10.1116 11.317C10.1116 10.1741 10.5223 9.22768 11.3438 8.47768L19.8884 0.723214C20.4152 0.241071 20.9955 0 21.6295 0ZM9.45536 13.8482C9.80357 14.5268 10.279 15.1071 10.8817 15.5893C11.4844 16.0714 12.1562 16.4107 12.8973 16.6071L12.9107 17.558C12.9464 19.4598 12.3683 21.0089 11.1763 22.2054C9.98438 23.4018 8.42857 24 6.50893 24C5.41071 24 4.4375 23.7924 3.58929 23.3772C2.74107 22.9621 2.06027 22.3929 1.54688 21.6696C1.03348 20.9464 0.647321 20.1295 0.388393 19.2188C0.129464 18.308 0 17.3259 0 16.2723C0.0625 16.317 0.245536 16.4509 0.549107 16.6741C0.852679 16.8973 1.12946 17.096 1.37946 17.2701C1.62946 17.4442 1.89286 17.6071 2.16964 17.7589C2.44643 17.9107 2.65179 17.9866 2.78571 17.9866C3.15179 17.9866 3.39732 17.8214 3.52232 17.4911C3.74554 16.9018 4.00223 16.3996 4.29241 15.9844C4.58259 15.5692 4.89286 15.2299 5.22321 14.9665C5.55357 14.7031 5.94643 14.4911 6.40179 14.3304C6.85714 14.1696 7.31696 14.0558 7.78125 13.9888C8.24554 13.9219 8.80357 13.875 9.45536 13.8482Z" fill="black"/>
</svg>
