<svg width="32" height="32" viewBox="0 0 32 32" fill="none" xmlns="http://www.w3.org/2000/svg">
<path d="M11.3333 9.33333C12.0405 9.33333 12.7188 9.05238 13.2189 8.55229C13.719 8.05219 14 7.37391 14 6.66667C14 5.95942 13.719 5.28115 13.2189 4.78105C12.7188 4.28095 12.0405 4 11.3333 4C10.626 4 9.94777 4.28095 9.44767 4.78105C8.94758 5.28115 8.66663 5.95942 8.66663 6.66667C8.66663 7.37391 8.94758 8.05219 9.44767 8.55229C9.94777 9.05238 10.626 9.33333 11.3333 9.33333ZM11.3333 18.6667C12.0405 18.6667 12.7188 18.3857 13.2189 17.8856C13.719 17.3855 14 16.7072 14 16C14 15.2928 13.719 14.6145 13.2189 14.1144C12.7188 13.6143 12.0405 13.3333 11.3333 13.3333C10.626 13.3333 9.94777 13.6143 9.44767 14.1144C8.94758 14.6145 8.66663 15.2928 8.66663 16C8.66663 16.7072 8.94758 17.3855 9.44767 17.8856C9.94777 18.3857 10.626 18.6667 11.3333 18.6667ZM14 25.3333C14 26.0406 13.719 26.7189 13.2189 27.219C12.7188 27.719 12.0405 28 11.3333 28C10.626 28 9.94777 27.719 9.44767 27.219C8.94758 26.7189 8.66663 26.0406 8.66663 25.3333C8.66663 24.6261 8.94758 23.9478 9.44767 23.4477C9.94777 22.9476 10.626 22.6667 11.3333 22.6667C12.0405 22.6667 12.7188 22.9476 13.2189 23.4477C13.719 23.9478 14 24.6261 14 25.3333ZM20.6666 9.33333C21.3739 9.33333 22.0521 9.05238 22.5522 8.55229C23.0523 8.05219 23.3333 7.37391 23.3333 6.66667C23.3333 5.95942 23.0523 5.28115 22.5522 4.78105C22.0521 4.28095 21.3739 4 20.6666 4C19.9594 4 19.2811 4.28095 18.781 4.78105C18.2809 5.28115 18 5.95942 18 6.66667C18 7.37391 18.2809 8.05219 18.781 8.55229C19.2811 9.05238 19.9594 9.33333 20.6666 9.33333ZM23.3333 16C23.3333 16.7072 23.0523 17.3855 22.5522 17.8856C22.0521 18.3857 21.3739 18.6667 20.6666 18.6667C19.9594 18.6667 19.2811 18.3857 18.781 17.8856C18.2809 17.3855 18 16.7072 18 16C18 15.2928 18.2809 14.6145 18.781 14.1144C19.2811 13.6143 19.9594 13.3333 20.6666 13.3333C21.3739 13.3333 22.0521 13.6143 22.5522 14.1144C23.0523 14.6145 23.3333 15.2928 23.3333 16ZM20.6666 28C21.3739 28 22.0521 27.719 22.5522 27.219C23.0523 26.7189 23.3333 26.0406 23.3333 25.3333C23.3333 24.6261 23.0523 23.9478 22.5522 23.4477C22.0521 22.9476 21.3739 22.6667 20.6666 22.6667C19.9594 22.6667 19.2811 22.9476 18.781 23.4477C18.2809 23.9478 18 24.6261 18 25.3333C18 26.0406 18.2809 26.7189 18.781 27.219C19.2811 27.719 19.9594 28 20.6666 28Z" fill="black"/>
</svg>
