<?xml version="1.0" encoding="UTF-8"?>
<svg width="25px" height="31px" viewBox="0 0 25 31" version="1.1" xmlns="http://www.w3.org/2000/svg" xmlns:xlink="http://www.w3.org/1999/xlink">
    <title>file</title>
    <g id="Page-1" stroke="none" stroke-width="1" fill="none" fill-rule="evenodd">
        <g id="file" transform="translate(0.333500, 0.666500)" fill="#5C5F62" fill-rule="nonzero">
            <path d="M6.000009,21.0001125 L18.000045,21.0001125 L18.000045,24 L6.000009,24 L6.000009,21.0001125 Z M6.000009,15.0000495 L18.000045,15.0000495 L18.000045,18.0000495 L6.000009,18.0000495 L6.000009,15.0000495 Z M14.9999775,-1.59872515e-15 L3,-1.59872515e-15 C1.35000338,-1.59872515e-15 0,1.35000338 0,3.0000135 L0,27.0000675 C0,28.6501316 1.33499134,30.000135 2.98500146,30.000135 L21.0001125,30.000135 C22.6499966,30.000135 24,28.6501316 24,27.0000675 L24,9.0000225 L14.9999775,-1.59872515e-15 Z M21.0001125,27.0000675 L2.9999955,27.0000675 L2.9999955,3.0000135 L13.5000338,3.0000135 L13.5000338,10.5000383 L21.0001125,10.5000383 L21.0001125,27.0000675 Z" id="Shape"></path>
        </g>
    </g>
</svg>