<svg width="17" height="17" viewBox="0 0 17 17" fill="none" xmlns="http://www.w3.org/2000/svg">
<g clip-path="url(#clip0_3139_32149)">
<path d="M11.3333 1.33325C11.5985 1.33325 11.8528 1.43861 12.0404 1.62615C12.2279 1.81368 12.3333 2.06804 12.3333 2.33325V14.3333C12.3333 14.5985 12.2279 14.8528 12.0404 15.0404C11.8528 15.2279 11.5985 15.3333 11.3333 15.3333H5.33325C5.06804 15.3333 4.81368 15.2279 4.62615 15.0404C4.43861 14.8528 4.33325 14.5985 4.33325 14.3333V2.33325C4.33325 2.06804 4.43861 1.81368 4.62615 1.62615C4.81368 1.43861 5.06804 1.33325 5.33325 1.33325H11.3333ZM5.33325 0.333252C4.80282 0.333252 4.29411 0.543966 3.91904 0.919038C3.54397 1.29411 3.33325 1.80282 3.33325 2.33325V14.3333C3.33325 14.8637 3.54397 15.3724 3.91904 15.7475C4.29411 16.1225 4.80282 16.3333 5.33325 16.3333H11.3333C11.8637 16.3333 12.3724 16.1225 12.7475 15.7475C13.1225 15.3724 13.3333 14.8637 13.3333 14.3333V2.33325C13.3333 1.80282 13.1225 1.29411 12.7475 0.919038C12.3724 0.543966 11.8637 0.333252 11.3333 0.333252L5.33325 0.333252Z" fill="black" class="svg-fill"/>
<path d="M8.33325 14.3333C8.59847 14.3333 8.85282 14.2279 9.04036 14.0404C9.22789 13.8528 9.33325 13.5985 9.33325 13.3333C9.33325 13.068 9.22789 12.8137 9.04036 12.6261C8.85282 12.4386 8.59847 12.3333 8.33325 12.3333C8.06804 12.3333 7.81368 12.4386 7.62615 12.6261C7.43861 12.8137 7.33325 13.068 7.33325 13.3333C7.33325 13.5985 7.43861 13.8528 7.62615 14.0404C7.81368 14.2279 8.06804 14.3333 8.33325 14.3333Z" fill="black" class="svg-fill"/>
</g>
<defs>
<clipPath id="clip0_3139_32149">
<rect width="16" height="16" fill="white" transform="translate(0.333252 0.333252)"/>
</clipPath>
</defs>
</svg>
