<svg width="50" height="50" viewBox="0 0 50 50" fill="none" xmlns="http://www.w3.org/2000/svg">
<circle cx="25" cy="25" r="24.5" stroke="black" stroke-dasharray="4 4"/>
<path d="M22.5751 12.8398C14.4906 12.8398 9.64001 19.325 9.64001 22.5678C9.64001 25.8107 11.2567 28.2427 14.4906 28.2427C17.7245 28.2427 19.3418 29.053 19.3418 31.485C19.3418 34.7272 21.7667 37.1592 25.0007 37.1592C35.5107 37.1592 40.3607 31.485 40.3607 25.8107C40.36 16.0827 32.2743 12.8398 22.5751 12.8398ZM20.5539 16.0827C20.8197 16.0831 21.0828 16.1357 21.3282 16.2377C21.5736 16.3398 21.7965 16.4891 21.9841 16.6773C22.1718 16.8654 22.3206 17.0887 22.422 17.3343C22.5234 17.58 22.5754 17.8432 22.5751 18.109C22.5751 19.229 21.6701 20.1358 20.5539 20.1358C19.4378 20.1358 18.5328 19.2283 18.5328 18.109C18.5325 17.8432 18.5845 17.58 18.6859 17.3343C18.7873 17.0887 18.936 16.8654 19.1237 16.6773C19.3114 16.4891 19.5343 16.3398 19.7797 16.2377C20.0251 16.1357 20.2882 16.0831 20.5539 16.0827ZM27.0205 16.0827C27.2862 16.0831 27.5493 16.1357 27.7947 16.2377C28.0401 16.3398 28.263 16.4891 28.4507 16.6773C28.6384 16.8654 28.7872 17.0887 28.8885 17.3343C28.9899 17.58 29.042 17.8432 29.0416 18.109C29.042 18.3748 28.9901 18.6381 28.8887 18.8838C28.7874 19.1295 28.6386 19.3529 28.4509 19.5411C28.2632 19.7293 28.0403 19.8787 27.7949 19.9808C27.5494 20.0828 27.2863 20.1355 27.0205 20.1358C26.7547 20.1354 26.4917 20.0827 26.2463 19.9806C26.0009 19.8785 25.7781 19.7291 25.5905 19.5409C25.4029 19.3526 25.2541 19.1293 25.1528 18.8836C25.0515 18.638 24.9996 18.3747 25 18.109C24.9993 17.5724 25.2118 17.0575 25.5907 16.6775C25.9696 16.2975 26.4839 16.0836 27.0205 16.0827ZM33.4883 19.325C33.7542 19.3252 34.0174 19.3779 34.2629 19.4799C34.5084 19.5819 34.7314 19.7313 34.9192 19.9195C35.1069 20.1077 35.2558 20.3311 35.3572 20.5769C35.4585 20.8226 35.5105 21.086 35.5101 21.3518C35.5105 21.6177 35.4585 21.881 35.3571 22.1267C35.2557 22.3724 35.1069 22.5958 34.9191 22.784C34.7314 22.9721 34.5084 23.1215 34.2629 23.2234C34.0174 23.3254 33.7542 23.3779 33.4883 23.3781C33.2226 23.3778 32.9595 23.3252 32.7141 23.2232C32.4687 23.1212 32.2458 22.9719 32.0582 22.7837C31.8705 22.5955 31.7218 22.3722 31.6205 22.1265C31.5192 21.8808 31.4673 21.6176 31.4679 21.3518C31.4673 21.0861 31.5192 20.8228 31.6205 20.5771C31.7218 20.3313 31.8705 20.108 32.0581 19.9198C32.2458 19.7315 32.4686 19.5821 32.7141 19.4801C32.9595 19.378 33.2226 19.3253 33.4883 19.325ZM14.8951 20.9467C15.1607 20.947 15.4238 20.9996 15.6691 21.1015C15.9145 21.2035 16.1374 21.3528 16.325 21.5409C16.5126 21.729 16.6614 21.9522 16.7627 22.1978C16.864 22.4435 16.916 22.7066 16.9155 22.9723C16.9155 24.0923 16.0106 24.9992 14.8951 24.9992C13.7795 24.9992 12.8739 24.0917 12.8739 22.9723C12.8734 22.4357 13.0861 21.9209 13.4651 21.541C13.8441 21.1612 14.3585 20.9474 14.8951 20.9467ZM25 29.053C26.3395 29.053 27.425 30.141 27.425 31.4856C27.425 32.8283 26.3395 33.917 25 33.917C23.6605 33.917 22.5751 32.8283 22.5751 31.4856C22.5745 31.1666 22.6367 30.8507 22.7583 30.5557C22.8799 30.2608 23.0583 29.9928 23.2835 29.7669C23.5087 29.541 23.7762 29.3616 24.0707 29.2391C24.3653 29.1166 24.681 29.0534 25 29.053Z" fill="black"/>
</svg>
