<svg width="99" height="101" viewBox="0 0 99 101" fill="none" xmlns="http://www.w3.org/2000/svg">
<path d="M87.5392 45.3054L87.9641 45.523C88.6225 45.9468 89.1804 46.5211 89.5923 47.2047C90.0903 48.0312 90.3545 48.9843 90.3545 49.9574C90.3545 50.9304 90.0903 51.8836 89.5923 52.7101C89.0944 53.5365 88.3829 54.2033 87.5387 54.6373C87.5386 54.6373 87.5385 54.6374 87.5384 54.6374L24.8873 86.7984L24.8832 86.8006C24.1075 87.2079 23.2432 87.4031 22.3735 87.3681C21.5039 87.333 20.6569 87.0688 19.9146 86.6C19.1721 86.1312 18.559 85.4733 18.1355 84.6888C17.712 83.9043 17.4929 83.0203 17.5002 82.1225H17.5002V82.1185V17.8274C17.5123 16.9535 17.7375 16.0972 18.1545 15.3362C18.572 14.5744 19.1682 13.9329 19.8879 13.4692C20.6074 13.0055 21.4279 12.7341 22.2745 12.6786C23.1187 12.6233 23.9634 12.7844 24.7324 13.1478L87.5392 45.3054Z" fill="white" stroke="#EB6709"/>
</svg>
