<svg width="11" height="11" viewBox="0 0 11 11" fill="none" xmlns="http://www.w3.org/2000/svg">
<path d="M10.5481 4.78726L1.45007 0.480328C1.32733 0.426489 1.19232 0.402569 1.05733 0.410747C0.922332 0.418924 0.791642 0.458938 0.677152 0.527147C0.562662 0.595357 0.468009 0.689594 0.40181 0.801281C0.33561 0.912969 0.299967 1.03856 0.298123 1.16662V9.77678C0.296977 9.90823 0.331667 10.0377 0.39884 10.1528C0.466012 10.2678 0.563397 10.3645 0.68158 10.4335C0.799763 10.5025 0.934748 10.5415 1.07349 10.5467C1.21223 10.5519 1.35003 10.5231 1.47358 10.4631L10.5481 6.15613C10.6825 6.09225 10.7955 5.99423 10.8745 5.87304C10.9535 5.75184 10.9953 5.61225 10.9953 5.46984C10.9953 5.32744 10.9535 5.18784 10.8745 5.06665C10.7955 4.94545 10.6825 4.84744 10.5481 4.78355V4.78726Z" fill="white"/>
</svg>
