<svg width="24" height="24" viewBox="0 0 24 24" fill="none" xmlns="http://www.w3.org/2000/svg">
<g clip-path="url(#clip0_3401_28127)">
<path d="M11.625 0.375C5.20312 0.375 0 5.57812 0 12C0 18.4219 5.20312 23.625 11.625 23.625C18.0469 23.625 23.25 18.4219 23.25 12C23.25 5.57812 18.0469 0.375 11.625 0.375ZM15.375 8.25C16.2047 8.25 16.875 8.92031 16.875 9.75C16.875 10.5797 16.2047 11.25 15.375 11.25C14.5453 11.25 13.875 10.5797 13.875 9.75C13.875 8.92031 14.5453 8.25 15.375 8.25ZM7.875 8.25C8.70469 8.25 9.375 8.92031 9.375 9.75C9.375 10.5797 8.70469 11.25 7.875 11.25C7.04531 11.25 6.375 10.5797 6.375 9.75C6.375 8.92031 7.04531 8.25 7.875 8.25ZM17.0062 16.2281C15.6703 17.8313 13.7109 18.75 11.625 18.75C9.53906 18.75 7.57969 17.8313 6.24375 16.2281C5.60625 15.4641 6.75938 14.5078 7.39688 15.2672C8.44688 16.5281 9.98438 17.2453 11.625 17.2453C13.2656 17.2453 14.8031 16.5234 15.8531 15.2672C16.4813 14.5078 17.6391 15.4641 17.0062 16.2281Z" fill="#F3BB1C"/>
</g>
<defs>
<clipPath id="clip0_3401_28127">
<rect width="23.25" height="24" fill="white"/>
</clipPath>
</defs>
</svg>
