<svg width="323" height="111" viewBox="0 0 323 111" fill="none" xmlns="http://www.w3.org/2000/svg">
<mask id="path-1-inside-1_3179_1474" fill="white">
<path fill-rule="evenodd" clip-rule="evenodd" d="M0.749556 5.58765C-0.392463 2.94673 1.54372 0 4.42098 0H318.333C320.542 0 322.333 1.79086 322.333 4V107C322.333 109.209 320.542 111 318.333 111H4.42099C1.54372 111 -0.392465 108.053 0.749554 105.412L21.6467 57.0876C22.0848 56.0745 22.0848 54.9255 21.6467 53.9124L0.749556 5.58765Z"/>
</mask>
<path fill-rule="evenodd" clip-rule="evenodd" d="M0.749556 5.58765C-0.392463 2.94673 1.54372 0 4.42098 0H318.333C320.542 0 322.333 1.79086 322.333 4V107C322.333 109.209 320.542 111 318.333 111H4.42099C1.54372 111 -0.392465 108.053 0.749554 105.412L21.6467 57.0876C22.0848 56.0745 22.0848 54.9255 21.6467 53.9124L0.749556 5.58765Z" fill="#C2C9D1" class="svg-fill"/>
<path fill-rule="evenodd" clip-rule="evenodd" d="M0.749556 5.58765C-0.392463 2.94673 1.54372 0 4.42098 0H318.333C320.542 0 322.333 1.79086 322.333 4V107C322.333 109.209 320.542 111 318.333 111H4.42099C1.54372 111 -0.392465 108.053 0.749554 105.412L21.6467 57.0876C22.0848 56.0745 22.0848 54.9255 21.6467 53.9124L0.749556 5.58765Z" fill="white" fill-opacity="0.75"/>
<path d="M21.6467 57.0876L22.5646 57.4846L21.6467 57.0876ZM21.6467 53.9124L22.5646 53.5154L21.6467 53.9124ZM318.333 -1H4.42099V1H318.333V-1ZM323.333 107V4H321.333V107H323.333ZM4.42098 112H318.333V110H4.42098V112ZM20.7289 56.6907L-0.168302 105.015L1.66741 105.809L22.5646 57.4846L20.7289 56.6907ZM20.7289 54.3093C21.0574 55.0691 21.0574 55.9309 20.7289 56.6907L22.5646 57.4846C23.1122 56.2182 23.1122 54.7818 22.5646 53.5154L20.7289 54.3093ZM-0.168303 5.98456L20.7289 54.3093L22.5646 53.5154L1.66741 5.19073L-0.168303 5.98456ZM4.42098 110C2.26303 110 0.810897 107.79 1.66741 105.809L-0.168302 105.015C-1.59582 108.317 0.824397 112 4.42098 112V110ZM321.333 107C321.333 108.657 319.99 110 318.333 110V112C321.095 112 323.333 109.761 323.333 107H321.333ZM4.42099 -1C0.824405 -1 -1.59583 2.68341 -0.168303 5.98456L1.66741 5.19073C0.810897 3.21005 2.26303 1 4.42099 1V-1ZM318.333 1C319.99 1 321.333 2.34314 321.333 4H323.333C323.333 1.23857 321.095 -1 318.333 -1V1Z" fill="#C2C9D1" mask="url(#path-1-inside-1_3179_1474)"/>
</svg>
