<svg width="347" height="111" viewBox="0 0 347 111" fill="none" xmlns="http://www.w3.org/2000/svg">
<mask id="path-1-inside-1_3179_4315" fill="white">
<path fill-rule="evenodd" clip-rule="evenodd" d="M323.71 2.41236C323.077 0.948025 321.634 0 320.038 0H4.75436C1.87709 0 -0.0590897 2.94673 1.08293 5.58765L21.9801 53.9124C22.4182 54.9255 22.4182 56.0745 21.9801 57.0876L1.08293 105.412C-0.0590912 108.053 1.87709 111 4.75436 111H320.038C321.634 111 323.077 110.052 323.71 108.588L345.98 57.0876C346.418 56.0745 346.418 54.9255 345.98 53.9124L323.71 2.41236Z"/>
</mask>
<path fill-rule="evenodd" clip-rule="evenodd" d="M323.71 2.41236C323.077 0.948025 321.634 0 320.038 0H4.75436C1.87709 0 -0.0590897 2.94673 1.08293 5.58765L21.9801 53.9124C22.4182 54.9255 22.4182 56.0745 21.9801 57.0876L1.08293 105.412C-0.0590912 108.053 1.87709 111 4.75436 111H320.038C321.634 111 323.077 110.052 323.71 108.588L345.98 57.0876C346.418 56.0745 346.418 54.9255 345.98 53.9124L323.71 2.41236Z" fill="#C2C9D1" class="svg-fill"/>
<path fill-rule="evenodd" clip-rule="evenodd" d="M323.71 2.41236C323.077 0.948025 321.634 0 320.038 0H4.75436C1.87709 0 -0.0590897 2.94673 1.08293 5.58765L21.9801 53.9124C22.4182 54.9255 22.4182 56.0745 21.9801 57.0876L1.08293 105.412C-0.0590912 108.053 1.87709 111 4.75436 111H320.038C321.634 111 323.077 110.052 323.71 108.588L345.98 57.0876C346.418 56.0745 346.418 54.9255 345.98 53.9124L323.71 2.41236Z" fill="white" fill-opacity="0.75"/>
<path d="M21.9801 53.9124L22.898 53.5154L21.9801 53.9124ZM21.9801 57.0876L22.898 57.4846L21.9801 57.0876ZM345.98 57.0876L345.062 56.6907L345.062 56.6907L345.98 57.0876ZM345.98 53.9124L345.062 54.3093L345.062 54.3093L345.98 53.9124ZM323.71 108.588L322.792 108.191L323.71 108.588ZM1.08293 5.58765L0.165072 5.98456L1.08293 5.58765ZM4.75436 1H320.038V-1H4.75436V1ZM22.898 53.5154L2.00079 5.19074L0.165072 5.98456L21.0622 54.3093L22.898 53.5154ZM22.898 57.4846C23.4456 56.2182 23.4456 54.7818 22.898 53.5154L21.0622 54.3093C21.3908 55.0691 21.3908 55.9309 21.0622 56.6907L22.898 57.4846ZM2.00078 105.809L22.898 57.4846L21.0622 56.6907L0.165071 105.015L2.00078 105.809ZM320.038 110H4.75436V112H320.038V110ZM345.062 56.6907L322.792 108.191L324.628 108.985L346.898 57.4846L345.062 56.6907ZM345.062 54.3093C345.391 55.0691 345.391 55.9309 345.062 56.6907L346.898 57.4846C347.446 56.2182 347.446 54.7818 346.898 53.5154L345.062 54.3093ZM322.792 2.80927L345.062 54.3093L346.898 53.5154L324.628 2.01544L322.792 2.80927ZM0.165071 105.015C-1.26245 108.317 1.15778 112 4.75436 112V110C2.59641 110 1.14427 107.79 2.00078 105.809L0.165071 105.015ZM320.038 1C321.235 1 322.317 1.71102 322.792 2.80927L324.628 2.01544C323.836 0.185035 322.033 -1 320.038 -1V1ZM320.038 112C322.033 112 323.836 110.815 324.628 108.985L322.792 108.191C322.317 109.289 321.235 110 320.038 110V112ZM4.75436 -1C1.15777 -1 -1.26245 2.68341 0.165072 5.98456L2.00079 5.19074C1.14427 3.21005 2.59641 1 4.75436 1V-1Z" fill="#C2C9D1" mask="url(#path-1-inside-1_3179_4315)"/>
</svg>
