<svg width="348" height="111" viewBox="0 0 348 111" xmlns="http://www.w3.org/2000/svg" xmlns:xlink="http://www.w3.org/1999/xlink"><defs><path d="M0 4a4 4 0 0 1 4-4h317.372a4 4 0 0 1 3.671 2.412l22.27 51.5a3.992 3.992 0 0 1 0 3.176l-22.27 51.5a4 4 0 0 1-3.671 2.412H4a4 4 0 0 1-4-4V4Z" id="a"/></defs><g fill="none" fill-rule="evenodd"><path d="M0 4a4 4 0 0 1 4-4h317.372a4 4 0 0 1 3.671 2.412l22.27 51.5a3.992 3.992 0 0 1 0 3.176l-22.27 51.5a4 4 0 0 1-3.671 2.412H4a4 4 0 0 1-4-4V4Z" fill="#C2C9D1" class="svg-fill" /><path d="M0 4a4 4 0 0 1 4-4h317.372a4 4 0 0 1 3.671 2.412l22.27 51.5a3.992 3.992 0 0 1 0 3.176l-22.27 51.5a4 4 0 0 1-3.671 2.412H4a4 4 0 0 1-4-4V4Z" fill-opacity=".75" fill="#FFF"/><mask id="b" fill="#fff"><use xlink:href="#a"/></mask><path d="m347.313 53.912-.917.397.917-.397Zm0 3.176-.917-.397.917.397ZM321.372-1H4v2h317.372v-2Zm2.753 3.81 22.271 51.5 1.835-.795-22.27-51.5-1.836.794Zm22.271 51.5c.328.76.328 1.62 0 2.38l1.835.795a4.997 4.997 0 0 0 0-3.97l-1.835.794Zm0 2.38-22.271 51.501 1.836.794 22.27-51.5-1.835-.794ZM4 112h317.372v-2H4v2ZM-1 4v103h2V4h-2Zm325.125 104.191a3 3 0 0 1-2.753 1.809v2a5 5 0 0 0 4.589-3.015l-1.836-.794ZM4-1a5 5 0 0 0-5 5h2a3 3 0 0 1 3-3v-2Zm0 111a3 3 0 0 1-3-3h-2a5 5 0 0 0 5 5v-2ZM321.372 1a3 3 0 0 1 2.753 1.81l1.836-.795A5 5 0 0 0 321.372-1v2Z" fill="#C2C9D1" fill-rule="nonzero" mask="url(#b)"/></g></svg>