<svg width="50" height="50" viewBox="0 0 50 50" fill="none" xmlns="http://www.w3.org/2000/svg">
<ellipse cx="24.5098" cy="25" rx="24.5098" ry="25" fill="#EB6709"/>
<ellipse cx="24.5098" cy="25" rx="24.5098" ry="25" fill="white" fill-opacity="0.75"/>
<mask id="mask0_3092_28338" style="mask-type:alpha" maskUnits="userSpaceOnUse" x="0" y="0" width="50" height="50">
<ellipse cx="24.5098" cy="25" rx="24.5098" ry="25" fill="#D8D8F8"/>
</mask>
<g mask="url(#mask0_3092_28338)">
<rect x="14.7058" y="15.168" width="39.8693" height="44.8333" fill="#7F74EB"/>
</g>
<mask id="mask1_3092_28338" style="mask-type:alpha" maskUnits="userSpaceOnUse" x="14" y="17" width="36" height="33">
<mask id="mask2_3092_28338" style="mask-type:alpha" maskUnits="userSpaceOnUse" x="0" y="0" width="50" height="50">
<ellipse cx="24.5098" cy="25" rx="24.5098" ry="25" fill="#D8D8F8"/>
</mask>
<g mask="url(#mask2_3092_28338)">
<rect x="14.7058" y="17.5" width="39.8693" height="44.8333" fill="#7F74EB"/>
</g>
</mask>
<g mask="url(#mask1_3092_28338)">
<rect x="10.2942" y="15" width="29.4118" height="13.3333" rx="6.66667" fill="#695FC8"/>
</g>
<rect x="9.80396" y="8.33203" width="29.4118" height="16.6667" rx="8.33333" fill="#3A3379"/>
<path fill-rule="evenodd" clip-rule="evenodd" d="M27.9038 13.5673C28.191 13.2744 28.6566 13.2744 28.9437 13.5673C29.2309 13.8602 29.2309 14.3351 28.9437 14.628L24.1605 19.5069C24.1292 19.5619 24.0904 19.6137 24.0442 19.6609C23.757 19.9538 23.2915 19.9538 23.0043 19.6609L20.0003 16.5967C19.7131 16.3038 19.7131 15.829 20.0003 15.5361C20.2874 15.2432 20.753 15.2432 21.0401 15.5361L23.5069 18.0522L27.9038 13.5673Z" fill="white"/>
<rect x="26.1438" y="33.332" width="13.0719" height="1.66667" rx="0.833333" fill="white"/>
<path d="M45.5882 38.332H26.9771C26.5169 38.332 26.1438 38.7051 26.1438 39.1654C26.1438 39.6256 26.5169 39.9987 26.9771 39.9987H42.3923C43.668 39.9987 44.8998 39.406 45.5882 38.332Z" fill="white" fill-opacity="0.5"/>
<path d="M50 19H43.317C42.8567 19 42.4836 19.3731 42.4836 19.8333C42.4836 20.2936 42.8567 20.6667 43.317 20.6667H47.824C48.844 20.6667 49.7547 19.99 50 19Z" fill="white" fill-opacity="0.5"/>
</svg>
