<svg width="81" height="81" viewBox="0 0 81 81" fill="none" xmlns="http://www.w3.org/2000/svg">
<ellipse cx="40.5387" cy="40.8496" rx="40.2685" ry="40" fill="#EB6709"/>
<ellipse cx="40.5387" cy="40.8496" rx="40.2685" ry="40" fill="white" fill-opacity="0.75"/>
<mask id="mask0_3139_29205" style="mask-type:alpha" maskUnits="userSpaceOnUse" x="0" y="0" width="81" height="81">
<ellipse cx="40.5387" cy="40.8496" rx="40.2685" ry="40" fill="#D8D8F8"/>
</mask>
<g mask="url(#mask0_3139_29205)">
<path d="M54.5533 25.5869C51.8666 21.0768 46.5514 20.8666 46.5514 20.8666C46.5514 20.8666 41.3719 20.2086 38.0494 27.0775C34.9525 33.4799 30.6783 39.6616 37.3613 41.1603L38.5684 37.4276L39.316 41.4382C40.2675 41.5062 41.222 41.5224 42.1753 41.4867C49.3322 41.2572 56.1481 41.5539 55.9286 39.0024C55.6369 35.6105 57.1383 29.9265 54.5533 25.5869Z" fill="#2F2E41"/>
<path d="M37.1236 64.4903C37.0456 64.9778 36.9322 65.459 36.7845 65.9305C36.6181 66.392 36.3613 66.8187 36.2092 67.285C35.7243 68.7711 36.3965 70.4281 37.47 71.5752C38.401 72.566 39.6028 73.2699 40.9302 73.6021C41.9076 73.8084 42.9043 73.9117 43.9038 73.9103C46.6675 74.0028 49.5024 74.0855 52.1212 73.2093C52.9486 72.9257 53.7477 72.5675 54.5086 72.1394C54.7488 72.0265 54.9605 71.8621 55.1281 71.6583C55.3035 71.3597 55.3816 71.015 55.3516 70.6712C55.3457 69.5154 55.1082 68.3655 55.1646 67.2111C55.1958 66.5717 55.3172 65.9327 55.2574 65.2953C55.0881 63.8118 53.9922 62.5933 52.5193 62.2508C51.7764 62.0934 51.0058 62.1792 50.2495 62.2509C48.2862 62.437 46.3146 62.524 44.3423 62.5115C42.3272 62.4988 40.3244 62.1953 38.3193 62.1636C37.7263 62.1543 37.7383 62.3346 37.5495 62.9007C37.3757 63.4218 37.2334 63.9526 37.1236 64.4903Z" fill="#2F2E41"/>
<path d="M42.8937 36.5144C42.7977 37.0149 42.6939 37.5337 42.3916 37.945C42.044 38.4182 41.4771 38.6885 41.103 39.1414C40.54 39.8231 40.5077 40.7822 40.5054 41.6646C40.5032 42.4775 40.5198 43.3445 40.9753 44.0193C41.2995 44.4384 41.7018 44.7915 42.1603 45.059C43.8684 46.2047 45.7142 47.3709 47.7737 47.4086C48.627 47.4243 49.5419 47.205 50.1034 46.5653C50.3458 46.2648 50.5364 45.9264 50.6674 45.5638C51.194 44.2719 51.5132 42.9056 51.6134 41.5151C51.6893 40.8613 51.6279 40.199 51.4333 39.5701C51.1831 38.8759 50.6772 38.3047 50.3429 37.6465C49.9477 36.8638 49.8031 35.9794 49.9288 35.1124C49.9454 35.0513 49.9403 34.9864 49.9142 34.9287C49.8585 34.8661 49.7765 34.8331 49.6927 34.8394L45.6091 34.5468C45.2288 34.528 44.8501 34.4849 44.4754 34.4177C44.2552 34.3732 43.6738 34.062 43.4639 34.1448C43.0753 34.2979 42.9733 36.0994 42.8937 36.5144Z" fill="#A0616A"/>
<path opacity="0.1" d="M42.8937 36.5144C42.7977 37.0149 42.6939 37.5337 42.3917 37.945C42.044 38.4182 41.4771 38.6885 41.103 39.1414C40.54 39.8231 40.5077 40.7822 40.5054 41.6646C40.5032 42.4775 40.5198 43.3445 40.9753 44.0193C41.2995 44.4384 41.7018 44.7915 42.1603 45.059C43.8684 46.2047 45.7142 47.3709 47.7737 47.4086C48.627 47.4243 49.5419 47.205 50.1034 46.5653C50.3458 46.2648 50.5364 45.9264 50.6674 45.5638C51.194 44.2719 51.5132 42.9056 51.6134 41.5151C51.6893 40.8613 51.6279 40.199 51.4333 39.5701C51.1831 38.8759 50.6772 38.3047 50.3429 37.6465C49.9477 36.8638 49.8031 35.9794 49.9288 35.1124C49.9454 35.0513 49.9403 34.9864 49.9142 34.9287C49.8585 34.8661 49.7765 34.8331 49.6927 34.8394L45.6091 34.5468C45.2288 34.528 44.8501 34.4849 44.4754 34.4177C44.2552 34.3732 43.6738 34.062 43.4639 34.1448C43.0753 34.2979 42.9733 36.0994 42.8937 36.5144Z" fill="black"/>
<path d="M46.4464 37.0746C49.7276 37.0746 52.3876 34.4324 52.3876 31.1731C52.3876 27.9137 49.7276 25.2715 46.4464 25.2715C43.1652 25.2715 40.5052 27.9137 40.5052 31.1731C40.5052 34.4324 43.1652 37.0746 46.4464 37.0746Z" fill="#A0616A"/>
<path d="M43.3717 44.0467C43.6621 44.3908 44.0122 44.677 44.4043 44.8909C44.813 45.0638 45.252 45.1493 45.6942 45.1422C46.7539 45.1727 47.9027 44.9741 48.6399 44.1945C49.5902 43.1897 49.5589 41.569 50.3037 40.3967C50.3637 40.2904 50.4456 40.1988 50.5437 40.1282C50.6687 40.0586 50.8099 40.0253 50.952 40.0321C51.8927 40.0231 52.7121 40.6474 53.4517 41.2423C53.7998 41.4874 54.0985 41.7988 54.3315 42.1594C54.4778 42.4513 54.5779 42.7651 54.6282 43.0891C54.9952 44.9221 55.1141 46.7964 55.232 48.6636C55.2972 49.695 55.3624 50.7274 55.3575 51.7609C55.3416 55.1658 54.5681 58.5138 53.7989 61.8266C53.6998 62.2534 53.5642 62.7306 53.1848 62.935C53.0157 63.0128 52.8341 63.0582 52.6489 63.0689C50.4458 63.3336 48.2382 63.5986 46.0202 63.6336C45.1547 63.6472 44.2895 63.6258 43.4247 63.5693C43.2758 63.5673 43.1282 63.5409 42.9875 63.4913C42.7965 63.3974 42.6323 63.2548 42.5108 63.0771C41.3111 61.5303 41.2403 59.3917 41.248 57.417C41.2667 52.5889 41.4353 47.7647 41.7537 42.9444C41.78 42.5465 41.7858 42.0633 41.5056 41.7503C42.0511 42.5776 42.6763 43.3469 43.3717 44.0467Z" fill="white"/>
<path d="M42.5234 36.8797C42.3167 37.249 40.793 38.1661 40.4989 38.4722C38.8553 40.1824 35.8557 40.1182 34.3525 41.9499C33.8237 42.5944 33.5489 43.4042 33.3468 44.2092C33.061 45.3478 32.9084 46.5896 33.3872 47.6632C33.8479 48.6962 34.8177 49.4104 35.4761 50.3332C36.1991 51.3464 36.5242 52.5766 36.8357 53.7771C37.0657 54.6636 37.2976 55.572 37.208 56.4828C37.1062 57.5183 36.5985 58.4665 36.2988 59.464C35.9991 60.4614 35.9474 61.6494 36.6404 62.4333C37.1495 63.0092 37.948 63.2375 38.7113 63.3659C39.6889 63.511 40.6747 63.5957 41.663 63.6196C42.5355 63.6577 43.4973 63.6651 44.1681 63.1129C44.6973 62.6772 44.9274 61.9701 44.9571 61.2905C44.9869 60.6108 44.8437 59.9372 44.7539 59.2626C44.6609 58.5634 44.6252 57.8581 44.5953 57.1535C44.4611 53.9919 44.4428 50.8283 44.5403 47.6627C44.5895 47.0048 44.5568 46.3434 44.443 45.6933C44.2559 44.8465 43.7923 44.0897 43.4054 43.3117C42.6323 41.8462 42.2822 40.1992 42.3932 38.5506C42.5104 36.8563 43.2588 35.5655 42.5234 36.8797Z" fill="white"/>
<path d="M50.7453 37.575C51.0534 37.8887 52.1005 37.9921 52.4925 38.1941C52.8613 38.3628 53.246 38.4948 53.6411 38.588C55.071 38.9965 56.4311 39.6147 57.6762 40.4221C57.9349 40.572 58.1636 40.7677 58.3509 40.9994C58.5483 41.3174 58.6755 41.6731 58.7242 42.0433C58.9161 42.9849 59.109 43.9379 59.0659 44.8976C59.0201 45.9163 58.7103 46.9029 58.4029 47.8762L57.2544 51.5126C56.3972 54.2269 55.5344 56.968 55.2932 59.802C55.1598 61.3726 55.2191 62.9535 55.4699 64.5101C55.5176 64.6632 55.4965 64.8293 55.412 64.9661C55.3363 65.0401 55.2368 65.0855 55.1308 65.0942C54.5764 65.1801 54.04 64.9002 53.5378 64.6525C52.0028 63.8959 50.3646 63.365 48.6749 63.0766C49.3352 62.1316 49.8446 61.0915 50.1853 59.9929C50.3788 59.2954 50.5312 58.5873 50.6417 57.8722L51.1759 54.8119C51.3933 53.6933 51.5463 52.5634 51.6342 51.4277C51.6746 51.0014 51.6495 50.5716 51.5599 50.1528C51.4367 49.7543 51.2732 49.3691 51.0719 49.0032C50.1914 47.1892 49.7783 45.1192 50.1247 43.1361C50.2763 42.2682 50.571 41.3991 50.4481 40.5268C50.33 39.688 50.4527 39.0362 50.2355 38.2062C49.3433 34.7981 50.1655 36.9849 50.7453 37.575Z" fill="white"/>
<path d="M34.5144 45.4333C34.1102 46.2705 33.4345 46.9837 33.2045 47.8842C33.115 48.3051 33.0766 48.7352 33.0902 49.1652C33.0503 49.8133 33.1146 50.4635 33.2806 51.0913C33.409 51.4884 33.6178 51.8546 33.7683 52.244C33.978 52.7879 34.0714 53.3695 34.0426 53.9516C34.002 54.758 33.7275 55.5408 33.7061 56.3479C33.6723 57.6172 34.2605 58.8104 34.8345 59.9436C35.1269 59.2208 35.724 58.6637 36.4662 58.4212C37.2084 58.1787 38.0199 58.2755 38.684 58.6857C38.8154 58.5246 38.8778 58.3182 38.8575 58.1114C38.8999 56.6388 38.9408 55.1662 38.9803 53.6935C39.0424 51.416 39.1016 49.108 38.5766 46.8906C38.3396 45.8895 37.9709 44.8922 37.2948 44.1157C36.9388 43.7068 35.7304 42.6299 35.1461 43.0879C34.8833 43.2939 34.9447 43.8546 34.9031 44.1385C34.8402 44.5873 34.7091 45.024 34.5144 45.4333Z" fill="white"/>
<path d="M58.8539 42.9241C59.0208 43.5307 59.0922 44.1586 59.0658 44.7862C59.0738 46.0653 59.0564 47.3443 59.0137 48.6232C59.0203 49.2791 58.9344 49.9327 58.7586 50.5658C58.6246 50.9774 58.4179 51.3635 58.2795 51.7738C57.8648 53.0034 58.0914 54.337 58.1269 55.6311C58.1521 56.05 58.1155 56.4702 58.0183 56.8789C57.7995 57.6812 57.2113 58.3295 56.8008 59.0565C56.4109 59.7469 56.1757 60.5208 55.7101 61.1649C55.2445 61.809 54.4384 62.3193 53.6571 62.1216C53.0652 61.9718 52.6445 61.4598 52.3536 60.9343C51.7187 59.7789 51.5016 58.4479 51.7374 57.1568C52.0294 55.5861 52.9738 54.1926 53.3143 52.6312C53.782 50.4871 53.0712 48.2745 53.0924 46.0823C53.0827 45.7387 53.1304 45.3958 53.2336 45.0671C53.4122 44.5664 53.7959 44.1665 54.1503 43.7649C54.5932 43.263 55.0047 42.7355 55.3824 42.1851C55.6361 41.8153 55.9807 40.8644 56.4306 40.7853C57.435 40.6088 58.6047 42.1659 58.8539 42.9241Z" fill="white"/>
<path d="M29.0324 63.8104C28.4869 63.6752 27.9247 63.6162 27.3625 63.6353C26.1676 63.7005 25.0587 64.2692 24.3182 65.1966C23.5777 66.124 23.2772 67.3206 23.493 68.4817C23.6293 69.1034 23.852 69.7036 24.1548 70.2653C24.5976 71.1518 25.1288 72.0362 25.9486 72.6043C26.4426 72.9167 26.9745 73.1664 27.5318 73.3477L31.8499 74.9522C32.4851 75.1882 33.1204 75.4243 33.7619 75.6432C36.9849 76.742 40.345 77.4009 43.749 77.6016C44.7848 77.6973 45.8292 77.6451 46.8499 77.4466C47.0966 77.4148 47.3228 77.2943 47.4849 77.1082C47.5672 76.9667 47.6158 76.8086 47.6268 76.6459L47.8925 74.8111C47.952 74.5556 47.9442 74.2893 47.87 74.0376C47.7482 73.7293 47.4431 73.5353 47.1522 73.3705C44.3134 71.7622 40.9988 70.8749 38.6093 68.6676C38.0468 68.148 37.576 67.3243 36.8926 66.9713C36.1175 66.5711 35.2048 66.3426 34.4037 65.9738C32.6524 65.1674 30.9305 64.2408 29.0324 63.8104Z" fill="#2F2E41"/>
<path opacity="0.1" d="M33.5495 66.2602C35.094 66.7195 41.6148 69.9017 42.7325 71.0128C42.5827 71.064 37.4996 68.3604 37.347 68.3169C35.9489 67.9525 34.5798 67.4946 33.2498 66.9465C32.9849 66.8303 31.529 66.2838 31.595 65.9666C31.6694 65.6087 33.2753 66.1786 33.5495 66.2602Z" fill="black"/>
<path d="M52.0617 78.3869C52.1496 78.3928 52.237 78.3692 52.3075 78.3204C52.3699 78.2468 52.3976 78.1531 52.3843 78.0605L52.3771 75.6948C51.6367 75.3707 50.8086 75.2668 49.9958 75.167L46.2033 74.7012C46.2904 74.7119 45.6103 76.2022 45.7146 76.4011C45.8984 76.7518 47.303 77.0626 47.6995 77.2281C49.0775 77.8037 50.5096 78.4365 52.0617 78.3869Z" fill="#A0616A"/>
<path d="M40.5421 75.7797C39.8483 75.892 39.0739 75.9912 38.6246 76.5398C38.0548 77.2355 38.2973 78.2725 38.5692 79.1343C38.6026 79.359 38.7242 79.5604 38.9062 79.6927C39.0882 79.8249 39.3151 79.8767 39.5353 79.8363C40.168 79.877 40.8414 79.9088 41.3943 79.5936C41.6447 79.4255 41.8858 79.2435 42.1164 79.0484C42.5241 78.7729 42.9722 78.5647 43.4441 78.4318C44.3116 78.1547 45.2045 77.9678 46.1092 77.874C46.4657 77.8575 46.8186 77.7943 47.1591 77.686C47.5039 77.5731 47.7772 77.3036 47.8985 76.9568C48.0265 76.4964 47.7631 76.027 47.5104 75.6232C47.2192 75.0943 46.8413 74.6198 46.3928 74.2202C45.7081 73.6799 45.3694 74.0947 44.6797 74.4404C43.3743 75.0948 41.9795 75.5463 40.5421 75.7797Z" fill="#A0616A"/>
<path d="M38.5288 76.3571L34.1049 75.0273C33.5743 74.8394 33.0198 74.7301 32.4586 74.7029C31.8901 74.6792 31.3391 74.9057 30.9467 75.3247C30.6036 75.7341 30.5054 76.2937 30.4199 76.8246L30.237 77.9602C30.115 78.5326 30.0804 79.1208 30.1346 79.704C30.1942 80.295 30.5185 80.825 31.0134 81.1406C31.6256 81.4803 32.3759 81.3144 33.0591 81.1723C34.4392 80.8854 35.843 80.7323 37.2515 80.7151C37.781 80.7086 38.3364 80.7154 38.8043 80.4632C39.3557 80.1307 39.7099 79.5426 39.7505 78.892C39.8375 77.922 39.5196 76.6549 38.5288 76.3571Z" fill="#2F2E41"/>
<path d="M54.1783 74.8735C54.7261 74.7707 55.2095 74.4373 55.7344 74.2405C56.4732 73.9635 57.2739 73.9635 58.0566 73.9666C58.3444 73.9384 58.6337 74.0005 58.8892 74.1451C59.234 74.391 59.3224 74.8829 59.381 75.3221L59.7347 77.9715C59.8293 78.4659 59.8391 78.9745 59.7636 79.4725C59.6598 79.9635 59.3473 80.4369 58.8924 80.5635C58.3398 80.7174 57.7982 80.3394 57.2764 80.0911C55.9725 79.4704 54.4567 79.6291 53.097 79.1652C52.8341 79.1087 52.6064 78.9344 52.4715 78.6862C52.425 78.539 52.4085 78.3829 52.4229 78.2283C52.4462 77.3767 52.2784 76.2138 52.5179 75.3999C52.7332 74.6679 53.5668 74.8735 54.1783 74.8735Z" fill="#2F2E41"/>
<path d="M63.2127 62.3946C64.0876 62.1712 64.9946 62.1081 65.8912 62.2083C66.6073 62.2886 67.3451 62.4915 67.8679 62.9961C68.5042 63.6104 68.7087 64.5603 68.7257 65.4529C68.7537 67.2308 68.1746 68.9635 67.0873 70.3549C66.8218 70.7068 66.506 71.0163 66.1505 71.2731C65.767 71.5173 65.3583 71.7179 64.9318 71.8711L55.4711 75.6706C52.9822 76.6702 50.4845 77.6727 47.8885 78.3316C47.7451 78.4021 47.5798 78.4107 47.4301 78.3554C47.2804 78.3002 47.159 78.1857 47.0933 78.0381C46.2644 76.8325 45.569 75.5373 45.0198 74.176C44.967 74.1103 44.9489 74.0226 44.9714 73.9409C44.9939 73.8592 45.0541 73.7938 45.1327 73.7657L51.8243 69.8509C52.315 69.5903 52.7724 69.2694 53.1863 68.8953C53.4755 68.61 53.7123 68.2743 53.8856 67.9041C54.0243 67.6091 54.0372 66.913 54.2144 66.6949C54.3878 66.4815 54.9812 66.4644 55.2553 66.3805C55.6418 66.2599 56.0204 66.1142 56.3885 65.9443C57.8854 65.2624 59.2183 64.2718 60.6533 63.4734C61.4581 63.0049 62.3181 62.6424 63.2127 62.3946Z" fill="#2F2E41"/>
<path opacity="0.1" d="M59.7822 65.8161C58.5933 66.6421 57.0539 67.4013 55.8756 68.249C55.4735 68.5383 48.7697 72.0245 48.6749 72.4875C49.7742 72.6588 56.7768 68.1275 57.7787 67.6754C58.7805 67.2232 59.6687 66.5856 60.5488 65.9527C60.773 65.7914 61.7235 65.3065 61.0797 65.1263C60.717 65.0248 60.05 65.651 59.7822 65.8161Z" fill="black"/>
<path d="M51.5771 37.084H41.4288C40.5702 37.084 39.8742 37.79 39.8742 38.6608V39.2382H39.764V40.5296H39.8742V41.4335H39.764V42.2083H39.8742V51.7365C39.8742 52.6074 40.5702 53.3133 41.4288 53.3133H51.5771C52.4356 53.3133 53.1316 52.6074 53.1316 51.7365V38.6608C53.1316 37.7899 52.4356 37.084 51.5771 37.084V37.084Z" fill="#D0CDE1"/>
<path d="M52.8834 25.6861L47.6849 23.0684L40.5058 24.1393L39.0206 30.4453L42.7179 30.3085L43.7507 27.9918V30.2705L45.4568 30.2074L46.447 26.5188L47.0659 30.4453L53.1309 30.3263L52.8834 25.6861Z" fill="#2F2E41"/>
<path d="M35.623 61.7715C35.8642 62.1676 36.2069 62.4971 36.6181 62.7281C37.1648 62.9694 37.7962 62.9531 38.3287 62.6838C38.8536 62.4119 39.2832 61.9956 39.5632 61.4878C40.1426 60.4991 40.2626 59.316 40.1903 58.182C40.118 57.0479 39.8674 55.9312 39.7565 54.8001C39.6759 53.9778 39.6694 53.1507 39.6629 52.3248C39.6428 52.1511 39.6805 51.9758 39.7705 51.8242C39.9254 51.6753 40.1258 51.5786 40.342 51.5484C41.5113 51.2126 42.2875 50.1535 42.844 49.1045C43.2155 48.404 43.5386 47.6384 43.467 46.8543C43.3953 46.0702 42.8121 45.2803 42.0018 45.2004C41.3338 45.1344 40.7169 45.5445 40.235 45.9964C39.0194 47.1436 38.2381 48.6524 38.0168 50.2804C37.911 51.0776 37.9413 51.8965 37.7169 52.6705C37.2378 54.323 35.7387 55.3362 34.9917 56.8231C34.1685 58.4616 34.6229 60.3217 35.623 61.7715Z" fill="#A0616A"/>
<path d="M56.6313 55.8904C56.3118 56.6609 55.7054 57.2649 54.9499 57.5651C54.4851 57.7586 53.9723 57.7911 53.4882 57.6579C53.0015 57.5179 52.6056 57.1509 52.4174 56.6651C52.3433 56.4237 52.3027 56.1726 52.2968 55.9194C52.2272 54.8104 52.2541 53.6677 52.6427 52.6319C52.7926 52.2325 52.9947 51.8536 53.113 51.4429C53.2293 50.9685 53.2887 50.4811 53.2901 49.9917L53.4179 46.9659C53.439 46.7462 53.4243 46.5244 53.3745 46.3098C53.2471 45.872 52.8523 45.5874 52.4901 45.3263C51.6153 44.6958 50.7508 43.96 50.3269 42.9467C50.1813 42.6416 50.1291 42.2977 50.1775 41.961C50.297 41.3602 50.882 40.9712 51.4602 40.8401C52.2247 40.6669 53.0243 40.8248 53.6737 41.2773C54.3232 41.7298 54.7662 42.4376 54.9 43.2367C54.9573 43.5782 54.9565 43.927 54.99 44.2718C55.061 45.0033 55.285 45.7084 55.4252 46.4291C55.7704 48.2043 55.5915 50.0394 55.9329 51.8143C56.2184 53.2983 57.2947 54.2666 56.6313 55.8904Z" fill="#A0616A"/>
<path d="M46.8177 44.4533C47.4329 44.4533 47.9317 43.9579 47.9317 43.3468C47.9317 42.7357 47.4329 42.2402 46.8177 42.2402C46.2024 42.2402 45.7037 42.7357 45.7037 43.3468C45.7037 43.9579 46.2024 44.4533 46.8177 44.4533Z" fill="#F6933E"/>
<path d="M56.6461 31.8516C56.6457 33.2192 56.1751 34.5456 55.3123 35.6112C54.4494 36.6769 53.2461 37.4179 51.9015 37.7116L51.2592 35.7976C51.8474 35.7014 52.4067 35.4768 52.8969 35.1399C53.3871 34.803 53.796 34.3624 54.0941 33.8496H51.6126C51.0786 33.8496 50.5665 33.6389 50.1889 33.2638C49.8113 32.8888 49.5991 32.38 49.5991 31.8496V27.8496C49.5991 27.3192 49.8113 26.8105 50.1889 26.4354C50.5665 26.0603 51.0786 25.8496 51.6126 25.8496H54.5703C54.3246 23.9165 53.3773 22.1389 51.906 20.8503C50.4347 19.5617 48.5405 18.8507 46.579 18.8507C44.6175 18.8507 42.7234 19.5617 41.2521 20.8503C39.7808 22.1389 38.8334 23.9165 38.5877 25.8496H41.5455C42.0795 25.8496 42.5916 26.0603 42.9692 26.4354C43.3468 26.8105 43.5589 27.3192 43.5589 27.8496V31.8496C43.5589 32.38 43.3468 32.8888 42.9692 33.2638C42.5916 33.6389 42.0795 33.8496 41.5455 33.8496H38.5253C37.9913 33.8496 37.4792 33.6389 37.1016 33.2638C36.724 32.8888 36.5119 32.38 36.5119 31.8496V26.8496C36.5119 21.3266 41.0189 16.8496 46.579 16.8496C52.1391 16.8496 56.6461 21.3266 56.6461 26.8496V31.8516ZM54.6327 31.8496V27.8496H51.6126V31.8496H54.6327ZM38.5253 27.8496V31.8496H41.5455V27.8496H38.5253Z" fill="#FB6D3A"/>
</g>
</svg>
