<svg width="81" height="81" viewBox="0 0 81 81" fill="none" xmlns="http://www.w3.org/2000/svg">
<circle cx="40.4183" cy="40.3496" r="40" fill="#EB6709"/>
<circle cx="40.4183" cy="40.3496" r="40" fill="white" fill-opacity="0.75"/>
<mask id="mask0_3139_29241" style="mask-type:alpha" maskUnits="userSpaceOnUse" x="0" y="0" width="81" height="81">
<circle cx="40.4183" cy="40.3496" r="40" fill="#D8D8F8"/>
</mask>
<g mask="url(#mask0_3139_29241)">
<path d="M3.26038 46.5933C4.83 46.5933 6.10243 45.3208 6.10243 43.7512C6.10243 42.1816 4.83 40.9092 3.26038 40.9092C1.69076 40.9092 0.418335 42.1816 0.418335 43.7512C0.418335 45.3208 1.69076 46.5933 3.26038 46.5933Z" fill="#2F2E41"/>
<path d="M13.8636 52.081L12.4168 50.582L9.51166 51.5439L9.79069 55.1293L15.7642 54.8336L13.9291 52.1759L13.8636 52.081Z" fill="#FBBEBE"/>
<path d="M10.6514 52.2821C13.1628 52.2821 15.1987 50.2462 15.1987 47.7348C15.1987 45.2234 13.1628 43.1875 10.6514 43.1875C8.14001 43.1875 6.10413 45.2234 6.10413 47.7348C6.10413 50.2462 8.14001 52.2821 10.6514 52.2821Z" fill="#FBBEBE"/>
<path d="M39.4149 58.5361C39.4149 58.5361 45.2422 68.3239 46.6291 69.7933C47.2886 70.5164 47.9912 71.2009 48.7334 71.843C48.7334 71.843 48.0813 73.9567 47.0429 73.8812C46.451 73.8464 45.8706 73.7066 45.33 73.4686C45.33 73.4686 44.8665 72.2944 44.0581 71.7795C43.2497 71.2646 36.645 64.914 36.7994 62.8842C36.9538 60.8545 39.4149 58.5361 39.4149 58.5361Z" fill="#2F2E41"/>
<path d="M19.1745 72.3448C19.1745 72.3448 25.3146 77.156 33.6592 72.6352L34.3783 72.1009C34.3783 72.1009 33.1647 74.8571 33.0521 75.6043C32.9215 76.4708 29.762 81.5462 29.2463 81.7893C28.7307 82.0325 28.6171 82.2568 28.6171 82.2568L30.8052 84.6882L31.6142 84.0871C31.6142 84.0871 34.7687 79.5751 35.6914 78.7497C36.614 77.9243 41.0099 69.4123 41.0099 69.4123C41.0099 69.4123 42.6905 66.2051 38.4961 65.9638C34.3017 65.7226 32.3716 66.8768 32.3716 66.8768L24.9275 68.0706L19.1745 72.3448Z" fill="#2F2E41"/>
<path d="M49.0964 71.0469L52.145 73.2677C52.145 73.2677 56.0345 74.5506 53.6386 75.4044C51.2428 76.2582 44.9291 76.567 44.7859 75.3891C44.6427 74.2111 45.0349 72.357 45.3499 72.4584C45.6649 72.5598 47.851 73.1574 49.0964 71.0469Z" fill="#2F2E41"/>
<path d="M25.9966 68.8961C25.9966 68.8961 21.8971 73.7319 19.4083 72.5572C16.9194 71.3825 6.73694 57.7764 7.8996 55.2617C9.06226 52.7471 9.4521 53.2823 9.4521 53.2823L14.7096 53.7735L13.1969 51.3229C13.1969 51.3229 13.9032 50.7978 14.5762 51.5349C15.2493 52.2721 17.9514 54.1134 18.8928 56.7138C19.8341 59.3142 22.5978 59.1845 22.5978 59.1845L25.9966 68.8961Z" fill="white"/>
<path d="M42.4791 58.8744L35.2833 66.5017L28.8373 55.1373L34.9653 47.7441L42.4791 58.8744Z" fill="#3F3D56"/>
<path d="M42.4815 59.2419L35.9212 65.9185L29.9764 55.63L35.4283 48.8662L42.4815 59.2419Z" fill="white"/>
<path d="M35.3138 66.4902L35.6612 66.8016L35.4384 67.2732L25.5236 70.4691L25.4298 70.1012L25.8809 69.596L35.3138 66.4902Z" fill="#B3B3B3"/>
<path d="M35.6572 66.6136L25.063 69.9173L18.6049 57.7461L29.0121 55.1387L35.6572 66.6136Z" fill="#D0CDE1"/>
<path d="M35.091 65.0145L34.6211 65.3524L29.4069 56.5038L29.9458 56.2578L35.091 65.0145Z" fill="#3F3D56"/>
<path d="M33.9536 65.2044L29.4281 66.4921L24.2906 57.8125L28.7678 56.8291L33.9536 65.2044Z" fill="#3F3D56"/>
<path d="M21.4587 58.9151L22.3966 58.6425C22.3966 58.6425 27.627 58.035 27.7034 59.7233C27.7797 61.4116 21.6946 60.6283 21.6946 60.6283L20.8832 59.4957L21.4587 58.9151Z" fill="#FBBEBE"/>
<path d="M25.9495 66.5023L27.1664 65.9429C27.1664 65.9429 30.8397 64.0983 29.7859 62.8964C28.7322 61.6946 25.4824 63.7818 25.4824 63.7818L24.8602 64.4425L25.9495 66.5023Z" fill="#FBBEBE"/>
<path d="M24.8843 63.9265C24.8843 63.9265 26.9692 65.9694 26.4948 66.4492C26.0204 66.929 18.2408 73.2405 16.3123 71.2211C14.3838 69.2016 4.988 59.0624 8.64407 58.1929C12.3001 57.3233 13.2661 59.3562 13.2661 59.3562L18.0926 67.4744L24.8843 63.9265Z" fill="white"/>
<path d="M18.8397 57.4082L22.0153 58.4981L21.9635 60.8187L18.6049 60.4518L18.8397 57.4082Z" fill="white"/>
<path opacity="0.2" d="M21.4471 64.9842L17.7329 67.067L13.4894 60.8145L17.5856 65.965L21.4471 64.9842Z" fill="black"/>
<path d="M8.3766 51.7178C11.5158 51.7178 14.0607 49.1729 14.0607 46.0337C14.0607 42.8945 11.5158 40.3496 8.3766 40.3496C5.23736 40.3496 2.6925 42.8945 2.6925 46.0337C2.6925 49.1729 5.23736 51.7178 8.3766 51.7178Z" fill="#2F2E41"/>
<path d="M38.4083 59.6716L34.5231 53.8148L36.1701 51.7139L40.2072 57.7395L38.4083 59.6716Z" fill="#F6933E"/>
<path d="M38.2342 61.9549L32.2489 53.2185L32.5441 52.8604L38.5014 61.6174L38.2342 61.9549Z" fill="#E6E6E6"/>
<path d="M37.6673 62.5145L31.682 53.778L31.9772 53.4199L37.9345 62.1772L37.6673 62.5145Z" fill="#E6E6E6"/>
<path d="M37.0989 63.6561L31.1136 54.9196L31.4089 54.5615L37.3662 63.3188L37.0989 63.6561Z" fill="#E6E6E6"/>
<path d="M11.2203 42.6279H12.9789C14.833 42.6279 16.336 44.1548 16.336 46.0384H11.2203V42.6279Z" fill="#2F2E41"/>
<path fill-rule="evenodd" clip-rule="evenodd" d="M28.8458 43.0245C31.3875 44.1026 33.8747 43.0535 35.2707 42.2163C42.5596 45.7578 51.3463 43.18 55.5666 36.2622C59.7868 29.3444 58.0582 20.3523 51.5739 15.4921C45.0896 10.6318 35.9733 11.4953 30.5169 17.4866C25.0605 23.4778 25.0511 32.6345 30.4952 38.6369L27.2028 42.3276L28.8458 43.0245ZM33.1243 37.6583C30.4574 35.1741 28.9492 31.6891 28.9639 28.0445C28.9645 22.1008 32.9399 16.8915 38.673 15.322C44.406 13.7524 50.4807 16.2104 53.5089 21.3249C56.5372 26.4395 55.7712 32.9474 51.6381 37.2191C47.505 41.4907 41.0256 42.4711 35.8137 39.6134L35.1103 39.2269L34.4564 39.6922C33.7091 40.2357 32.8605 40.6239 31.9606 40.834L34.0325 38.5117L33.1243 37.6583Z" fill="#F6933E"/>
<path d="M27.893 28.063C27.8956 21.422 32.3386 15.6027 38.7445 13.8501C45.1504 12.0975 51.9373 14.8444 55.3207 20.559C58.704 26.2737 57.8483 33.5449 53.2307 38.3181C48.6132 43.0913 41.3739 44.1877 35.5499 40.996C34.5305 41.7213 32.0435 43.168 29.5866 42.1259L32.544 38.8109C29.5724 36.0267 27.8883 32.135 27.893 28.063Z" fill="white"/>
<path opacity="0.1" d="M54.3367 28.0684C54.3362 20.4317 48.6188 14.0594 41.1615 13.3841C41.5825 13.3465 42.0083 13.3262 42.4389 13.3262C50.4189 13.329 56.8865 19.9284 56.8865 28.0684C56.8865 36.2083 50.4189 42.8078 42.4389 42.8105C42.009 42.8105 41.5839 42.7899 41.1635 42.7524C48.62 42.0761 54.3362 35.7043 54.3367 28.0684Z" fill="black"/>
<rect x="34.2816" y="25.123" width="10.3195" height="0.982813" fill="#F6933E"/>
<rect x="33.7911" y="28.5605" width="18.6734" height="0.982813" fill="#F6933E"/>
<rect x="33.7911" y="32.002" width="18.182" height="0.982813" fill="#F6933E"/>
</g>
</svg>
