<svg width="81" height="81" viewBox="0 0 81 81" fill="none" xmlns="http://www.w3.org/2000/svg">
<ellipse cx="40.3109" cy="40.8496" rx="40.2685" ry="40" fill="#EB6709"/>
<ellipse cx="40.3109" cy="40.8496" rx="40.2685" ry="40" fill="white" fill-opacity="0.75"/>
<mask id="mask0_3139_29172" style="mask-type:alpha" maskUnits="userSpaceOnUse" x="0" y="0" width="81" height="81">
<ellipse cx="40.3109" cy="40.8496" rx="40.2685" ry="40" fill="#D8D8F8"/>
</mask>
<g mask="url(#mask0_3139_29172)">
<rect x="15.3668" y="27.7227" width="59.6995" height="46.3844" fill="#EB6709"/>
<rect x="15.3668" y="27.7227" width="59.6995" height="46.3844" fill="white" fill-opacity="0.9"/>
<path fill-rule="evenodd" clip-rule="evenodd" d="M7.08951 68.8211H66.789V21.8496H7.08951V68.8211ZM66.5401 68.5584H7.33609V22.0801H66.5401V68.5584Z" fill="#EB6709"/>
<path fill-rule="evenodd" clip-rule="evenodd" d="M7.08951 68.8211H66.789V21.8496H7.08951V68.8211ZM66.5401 68.5584H7.33609V22.0801H66.5401V68.5584Z" fill="black" fill-opacity="0.5"/>
<path d="M28.4043 58.8366L28.3695 34.7637L56.1505 46.7616L28.4043 58.8366Z" fill="#D0CDE1"/>
<path d="M23.6742 58.8366L23.6395 34.7637L51.4204 46.7615L23.6742 58.8366Z" fill="url(#paint0_linear_3139_29172)"/>
<path opacity="0.2" d="M49.6432 45.9258L23.6395 57.2957L23.6417 58.8429L51.4204 46.6969L49.6432 45.9258Z" fill="black"/>
<path d="M64.1869 49.9177C66.8694 49.9177 69.0439 47.7577 69.0439 45.0931C69.0439 42.4286 66.8694 40.2686 64.1869 40.2686C61.5045 40.2686 59.33 42.4286 59.33 45.0931C59.33 47.7577 61.5045 49.9177 64.1869 49.9177Z" fill="#FFB8B8"/>
<path d="M60.5667 46.8945C60.5667 46.8945 61.4802 53.7327 60.0749 54.5002C58.6696 55.2677 68.4362 55.3375 68.4362 55.3375C68.4362 55.3375 66.2581 49.4065 67.2418 47.5923L60.5667 46.8945Z" fill="#FFB8B8"/>
<path d="M75.1161 55.8082L74.314 59.35L72.618 66.8432L72.5673 67.2535L71.982 72.0043L71.5926 75.1603L71.3316 77.2803C69.7443 78.0713 68.5939 78.6174 68.5939 78.6174C68.5939 78.6174 68.495 78.1363 68.3355 77.5208C67.2215 77.8447 65.1603 78.3819 63.4136 78.4892C64.0496 79.1768 64.342 79.8226 63.9455 80.2993C62.7488 81.7361 57.8087 78.726 56.0808 77.6035C56.0406 77.8722 56.0254 78.144 56.0353 78.4154L54.713 77.4292L54.8439 75.1603L55.0646 71.3212L55.3419 66.5067C55.2544 66.3005 55.1812 66.089 55.1225 65.8735C54.7176 64.477 54.226 61.6884 53.8491 59.35C53.5457 57.468 53.3178 55.8777 53.2696 55.5393C53.2631 55.4951 53.2599 55.4724 53.2599 55.4724L60.5796 52.3359C61.0997 53.5058 63.5288 53.8574 63.5288 53.8574C65.5412 53.723 67.1187 52.6939 67.1187 52.6939L75.1161 55.8082Z" fill="#D0CDE1"/>
<path d="M69.0437 77.5428C69.0437 77.5428 68.7435 77.6524 68.2554 77.8077C67.1763 78.1526 65.1797 78.7247 63.4876 78.8389C62.0308 78.9384 60.7998 78.6991 60.5746 77.686C60.4781 77.2504 60.615 76.8921 60.9133 76.5976C61.8038 75.7176 64.1296 75.4023 65.9743 75.2941C66.4952 75.2638 66.977 75.2497 67.3781 75.2443C68.0592 75.2349 68.5057 75.2497 68.5057 75.2497L68.5165 75.2941L69.0437 77.5428Z" fill="#FFB8B8"/>
<path d="M60.0104 40.1924L59.1012 39.8611C59.1012 39.8611 61.0022 37.9558 63.6472 38.1214L62.9033 37.3759C62.9033 37.3759 64.7216 36.7132 66.3747 38.4528C67.2437 39.3673 68.2491 40.4422 68.8759 41.6531H69.8496L69.4432 42.4677L70.8655 43.2823L69.4057 43.136C69.4926 43.5821 69.506 44.0375 69.4453 44.4871C69.3826 44.9369 69.1305 45.347 68.7421 45.6308C68.7421 45.6308 67.6145 43.506 67.6145 43.1747V44.0031C67.6145 44.0031 66.7053 43.2575 66.7053 42.7605L66.2094 43.3404L65.9614 42.4291L62.9033 43.3404L63.3992 42.5948L61.4982 42.8433L62.2421 41.9321C62.2421 41.9321 60.0931 43.009 60.0104 43.9203C59.9278 44.8315 59.2988 45.6949 59.2988 45.6949C59.2988 45.6949 57.6135 41.435 60.0104 40.1924Z" fill="#2F2E41"/>
<path d="M80.3208 71.7069C79.8364 72.222 78.6358 72.9977 77.1804 73.8375C76.639 74.1496 76.0627 74.4712 75.4747 74.7909C74.0717 75.554 72.6027 76.3101 71.3905 76.9209C69.8135 77.7157 68.6706 78.2643 68.6706 78.2643C68.6706 78.2643 68.5723 77.781 68.4138 77.1626C68.2016 76.3348 67.8821 75.2647 67.5489 74.7909C67.5373 74.7744 67.5257 74.7592 67.514 74.744C67.417 74.619 67.3193 74.5461 67.2229 74.5461L72.0367 71.62L74.117 70.3552L72.6182 66.8469L70.7385 62.4461L71.8731 58.9061L73.0135 55.3477H75.1506C75.1506 55.3477 75.8583 56.8624 76.7632 58.9746C76.8984 59.2905 77.0381 59.6197 77.1804 59.9597C79.042 64.3998 81.3629 70.6001 80.3208 71.7069Z" fill="#D0CDE1"/>
<path d="M64.0103 80.2552C62.8338 81.8008 57.9769 78.5629 56.2782 77.3554C55.9082 77.0926 55.688 76.9262 55.688 76.9262L57.2421 74.7273L57.7344 74.0312C57.7344 74.0312 58.1747 74.2791 58.8257 74.6825C58.8494 74.6974 58.8731 74.7124 58.8974 74.7273C59.4587 75.0771 60.1634 75.5341 60.8746 76.0441C61.8558 76.7483 62.8479 77.5517 63.4874 78.3082C64.1127 79.0478 64.4001 79.7425 64.0103 80.2552Z" fill="#FFB8B8"/>
<path d="M58.7233 75.4779C58.5449 75.4772 58.3668 75.4915 58.1909 75.5207C56.6796 75.7771 56.234 77.1278 56.1071 78.0327C56.0665 78.309 56.0511 78.5884 56.0611 78.8674L54.726 77.8535L54.2396 77.4842C53.0689 77.0811 52.0257 76.3652 51.1212 75.5207C50.3365 74.7752 49.6326 73.9509 49.0209 73.0613C48.4117 72.1845 47.8686 71.2646 47.396 70.3092C47.129 69.7694 47.1187 69.1404 47.3677 68.5923L49.0209 64.9542L51.4373 59.6368C51.4551 59.5103 51.4746 59.3865 51.4958 59.2656C51.975 56.5524 53.2588 55.3477 53.2588 55.3477H54.2396L54.8956 59.2656L55.7107 64.1331L55.1395 65.9726L53.8195 70.2209L55.081 71.5736L58.7233 75.4779Z" fill="#D0CDE1"/>
<path d="M60.2993 64.3982L61.1255 65.3861C61.4324 65.3261 61.7529 65.2556 62.0831 65.1764L61.8458 64.3982L62.426 65.0919C65.9235 64.2103 70.2587 62.4962 70.2587 62.4962C70.2587 62.4962 65.5784 62.8479 62.0839 62.0654C60.5377 61.7192 58.9469 62.5048 58.3125 63.9908C57.9437 64.8545 58.0016 65.6028 59.3096 65.6028C59.7515 65.5951 60.1922 65.5526 60.6278 65.4757L60.2993 64.3982Z" fill="#F6933E"/>
<path d="M78.7573 79.6933V79.9957C78.7575 80.0787 78.7378 80.161 78.699 80.2383C78.6818 80.2727 78.661 80.3061 78.6368 80.3379C78.4813 80.5406 78.1999 80.6648 77.8962 80.6647H49.2626C48.9588 80.6648 48.6774 80.5406 48.522 80.3379C48.4978 80.3061 48.477 80.2727 48.4598 80.2383C48.421 80.161 48.4012 80.0787 48.4014 79.9957V79.6933C48.4014 79.5159 48.4921 79.3457 48.6536 79.2202C48.8151 79.0948 49.0342 79.0243 49.2626 79.0243H50.9131V78.8834C50.9131 78.876 50.9168 78.8689 50.9236 78.8636C50.9303 78.8584 50.9395 78.8555 50.949 78.8555H51.8101C51.8197 78.8555 51.8288 78.8584 51.8356 78.8636C51.8423 78.8689 51.8461 78.876 51.8461 78.8834V79.0243H52.384V78.8834C52.384 78.876 52.3878 78.8689 52.3945 78.8636C52.4013 78.8584 52.4104 78.8555 52.4199 78.8555H53.2811C53.2906 78.8555 53.2998 78.8584 53.3065 78.8636C53.3132 78.8689 53.317 78.876 53.317 78.8834V79.0243H53.8556V78.8834C53.8556 78.876 53.8594 78.8689 53.8661 78.8636C53.8729 78.8584 53.882 78.8555 53.8915 78.8555H54.7527C54.7622 78.8555 54.7714 78.8584 54.7781 78.8636C54.7848 78.8689 54.7886 78.876 54.7886 78.8834V79.0243H55.3266V78.8834C55.3266 78.876 55.3303 78.8689 55.3371 78.8636C55.3438 78.8584 55.353 78.8555 55.3625 78.8555H56.2236C56.2332 78.8555 56.2423 78.8584 56.2491 78.8636C56.2558 78.8689 56.2596 78.876 56.2596 78.8834V79.0243H56.7975V78.8834C56.7975 78.876 56.8013 78.8689 56.808 78.8636C56.8148 78.8584 56.8239 78.8555 56.8334 78.8555H57.6946C57.7041 78.8555 57.7133 78.8584 57.72 78.8636C57.7268 78.8689 57.7305 78.876 57.7305 78.8834V79.0243H58.2691V78.8834C58.2691 78.876 58.2729 78.8689 58.2796 78.8636C58.2864 78.8584 58.2955 78.8555 58.305 78.8555H59.1662C59.1757 78.8555 59.1849 78.8584 59.1916 78.8636C59.1983 78.8689 59.2021 78.876 59.2021 78.8834V79.0243H59.7401V78.8834C59.7401 78.876 59.7439 78.8689 59.7506 78.8636C59.7573 78.8584 59.7665 78.8555 59.776 78.8555H66.5216C66.5311 78.8555 66.5403 78.8584 66.547 78.8636C66.5538 78.8689 66.5575 78.876 66.5575 78.8834V79.0243H67.0961V78.8834C67.0961 78.876 67.0999 78.8689 67.1066 78.8636C67.1134 78.8584 67.1225 78.8555 67.132 78.8555H67.9932C68.013 78.8556 68.0289 78.868 68.0291 78.8834V79.0243H68.5671V78.8834C68.5671 78.876 68.5709 78.8689 68.5776 78.8636C68.5843 78.8584 68.5935 78.8555 68.603 78.8555H69.4642C69.4737 78.8555 69.4828 78.8584 69.4896 78.8636C69.4963 78.8689 69.5001 78.876 69.5001 78.8834V79.0243H70.038V78.8834C70.038 78.876 70.0418 78.8689 70.0485 78.8636C70.0553 78.8584 70.0644 78.8555 70.074 78.8555H70.9351C70.9446 78.8555 70.9538 78.8584 70.9605 78.8636C70.9673 78.8689 70.971 78.876 70.971 78.8834V79.0243H71.5096V78.8834C71.5096 78.876 71.5134 78.8689 71.5201 78.8636C71.5269 78.8584 71.536 78.8555 71.5456 78.8555H72.4067C72.4263 78.8557 72.4421 78.8681 72.442 78.8834V79.0243H72.9806V78.8834C72.9806 78.876 72.9844 78.8689 72.9911 78.8636C72.9978 78.8584 73.007 78.8555 73.0165 78.8555H73.8777C73.8872 78.8555 73.8963 78.8584 73.9031 78.8636C73.9098 78.8689 73.9136 78.876 73.9136 78.8834V79.0243H74.4516V78.8834C74.4515 78.876 74.4553 78.8689 74.4621 78.8636C74.4688 78.8584 74.4779 78.8555 74.4875 78.8555H75.3486C75.3581 78.8555 75.3673 78.8584 75.374 78.8636C75.3808 78.8689 75.3845 78.876 75.3845 78.8834V79.0243H77.8962C78.1246 79.0243 78.3437 79.0948 78.5052 79.2202C78.6667 79.3457 78.7574 79.5159 78.7573 79.6933Z" fill="#3F3D56"/>
<path d="M76.207 62.8021H65.436V62.582H60.5521V62.8021H49.7367C49.5435 62.8021 49.3582 62.8782 49.2215 63.0136C49.0849 63.149 49.0081 63.3327 49.0081 63.5242V78.1428C49.0081 78.5416 49.3343 78.8649 49.7367 78.8649H76.207C76.6094 78.8649 76.9356 78.5416 76.9356 78.1428V63.5242C76.9356 63.3327 76.8588 63.149 76.7222 63.0136C76.5855 62.8782 76.4002 62.8021 76.207 62.8021Z" fill="#3F3D56"/>
<path fill-rule="evenodd" clip-rule="evenodd" d="M62.6695 69.2107C63.5078 69.2107 64.1873 68.5357 64.1873 67.703C64.1873 66.8703 63.5078 66.1953 62.6695 66.1953C61.8313 66.1953 61.1517 66.8703 61.1517 67.703C61.1517 68.5357 61.8313 69.2107 62.6695 69.2107Z" stroke="#D0CDE1" stroke-width="2"/>
<path d="M62.6695 70.4187C63.5078 70.4187 64.1873 69.7437 64.1873 68.911C64.1873 68.0783 63.5078 67.4033 62.6695 67.4033C61.8313 67.4033 61.1517 68.0783 61.1517 68.911C61.1517 69.7437 61.8313 70.4187 62.6695 70.4187Z" fill="#D0CDE1"/>
</g>
<defs>
<linearGradient id="paint0_linear_3139_29172" x1="23.6395" y1="46.8001" x2="51.3619" y2="40.7749" gradientUnits="userSpaceOnUse">
<stop stop-color="#FF512F"/>
<stop offset="1" stop-color="#F09819"/>
</linearGradient>
</defs>
</svg>
