<svg width="25" height="24" viewBox="0 0 25 24" fill="none" xmlns="http://www.w3.org/2000/svg">
<path d="M11.5 14.986C11.5 15.2512 11.6054 15.5056 11.7929 15.6931C11.9804 15.8806 12.2348 15.986 12.5 15.986C12.7652 15.986 13.0196 15.8806 13.2071 15.6931C13.3947 15.5056 13.5 15.2512 13.5 14.986V7.828L16.743 11.071L18.157 9.657L12.5 4L6.84302 9.657L8.25702 11.071L11.5 7.83V14.987V14.986Z" fill="white"/>
<path d="M4.5 14H6.5V18H18.5V14H20.5V18C20.5 18.5304 20.2893 19.0391 19.9142 19.4142C19.5391 19.7893 19.0304 20 18.5 20H6.5C5.96957 20 5.46086 19.7893 5.08579 19.4142C4.71071 19.0391 4.5 18.5304 4.5 18V14Z" fill="white"/>
</svg>
